<?xml version="1.0" encoding="utf-8"?>
<!-- Generator: Adobe Illustrator 27.9.0, SVG Export Plug-In . SVG Version: 6.00 Build 0)  -->
<svg version="1.1" id="レイヤー_1" xmlns="http://www.w3.org/2000/svg" xmlns:xlink="http://www.w3.org/1999/xlink" x="0px"
	 y="0px" viewBox="0 0 307.5 61.9" style="enable-background:new 0 0 307.5 61.9;" xml:space="preserve">
<style type="text/css">
	.st0{fill:#FFFFFF;}
</style>
<path d="M287.8,28.3l0,4.1c0,0.8,0.6,1.4,1.4,1.4H306c0.8,0,1.4-0.6,1.4-1.4l0-4.1c0-0.8-0.6-1.4-1.4-1.4l-16.8,0
	C288.4,26.9,287.8,27.5,287.8,28.3z"/>
<path d="M279.5,61.9h16.7c0.8,0,1.4-0.6,1.4-1.4V43.8c0-0.8-0.6-1.4-1.4-1.4h-16.7c-0.8,0-1.4,0.6-1.4,1.4v16.7
	C278.1,61.3,278.7,61.9,279.5,61.9z"/>
<path d="M110.2,42.4H84.6c-0.8,0-1.4-0.6-1.4-1.4V18.4c0-0.8-0.6-1.4-1.4-1.4h-6.9c-0.8,0-1.4,0.6-1.4,1.4v24v8.4
	c0,0.8,0.6,1.4,1.4,1.4h6.9c0.8,0,1.4,0.6,1.4,1.4v6.9c0,0.8,0.6,1.4,1.4,1.4H120c0.8,0,1.4-0.6,1.4-1.4v-6.9c0-0.8,0.6-1.4,1.4-1.4
	h6.9c0.8,0,1.4-0.6,1.4-1.4v-8.4v-24c0-0.8-0.6-1.4-1.4-1.4h-16.7c-0.8,0-1.4,0.6-1.4,1.4V41C111.7,41.8,111,42.4,110.2,42.4z"/>
<path d="M247.1,5.7v9.8c0,0.8-0.6,1.4-1.4,1.4h-22.8c-0.8,0-1.4,0.6-1.4,1.4v6.9c0,0.8-0.6,1.4-1.4,1.4h-6.9c-0.8,0-1.4,0.6-1.4,1.4
	v1.2v7.1v14.2c0,0.8,0.6,1.4,1.4,1.4h6.9c0.8,0,1.4,0.6,1.4,1.4v6.9c0,0.8,0.6,1.4,1.4,1.4h8.4h33.9c0.8,0,1.4-0.6,1.4-1.4v-6.9
	c0-0.8-0.6-1.4-1.4-1.4h-32.5c-0.8,0-1.4-0.6-1.4-1.4V37.9c0-0.8,0.6-1.4,1.4-1.4h32.5c0.8,0,1.4-0.6,1.4-1.4v-0.8V17V5.7
	c0-0.8-0.6-1.4-1.4-1.4h-16.7C247.7,4.3,247.1,5,247.1,5.7z"/>
<path d="M189.2,17H144c-0.8,0-1.4,0.6-1.4,1.4v8.4v9.8v24c0,0.8,0.6,1.4,1.4,1.4h16.7c0.8,0,1.4-0.6,1.4-1.4V37.9
	c0-0.8,0.6-1.4,1.4-1.4h25.7c0.8,0,1.4,0.6,1.4,1.4v22.6c0,0.8,0.6,1.4,1.4,1.4h6.9c0.8,0,1.4-0.6,1.4-1.4V28.2
	c0-0.8-0.6-1.4-1.4-1.4H192c-0.8,0-1.4-0.6-1.4-1.4v-6.9C190.6,17.6,189.9,17,189.2,17z"/>
<path d="M62.1,22.4v-6.9c0-0.8-0.6-1.4-1.4-1.4h-6.9c-0.8,0-1.4-0.6-1.4-1.4V5.7c0-0.8-0.6-1.4-1.4-1.4h-27h-8.4
	c-0.8,0-1.4,0.6-1.4,1.4v6.9c0,0.8-0.6,1.4-1.4,1.4H5.7c-0.8,0-1.4,0.6-1.4,1.4v8.4v26.9c0,0.8,0.6,1.4,1.4,1.4h6.9
	c0.8,0,1.4,0.6,1.4,1.4v6.9c0,0.8,0.6,1.4,1.4,1.4h27h9.2h8.9c0.8,0,1.4-0.6,1.4-1.4V43.8c0-0.8-0.6-1.4-1.4-1.4H43.9
	c-0.8,0-1.4,0.6-1.4,1.4v6.9c0,0.8-0.6,1.4-1.4,1.4H25.3c-0.8,0-1.4-0.6-1.4-1.4V25.3c0-0.8,0.6-1.4,1.4-1.4h35.4
	C61.4,23.9,62.1,23.2,62.1,22.4z"/>
<path class="st0" d="M283.5,24l0,4.1c0,0.8,0.6,1.4,1.4,1.4h16.8c0.8,0,1.4-0.6,1.4-1.4l0-4.1c0-0.8-0.6-1.4-1.4-1.4l-16.8,0
	C284.1,22.6,283.5,23.2,283.5,24z"/>
<path class="st0" d="M275.2,57.6h16.7c0.8,0,1.4-0.6,1.4-1.4V39.5c0-0.8-0.6-1.4-1.4-1.4h-16.7c-0.8,0-1.4,0.6-1.4,1.4v16.7
	C273.7,57,274.4,57.6,275.2,57.6z"/>
<path class="st0" d="M105.9,38.1H80.3c-0.8,0-1.4-0.6-1.4-1.4V14.1c0-0.8-0.6-1.4-1.4-1.4h-6.9c-0.8,0-1.4,0.6-1.4,1.4v24v8.4
	c0,0.8,0.6,1.4,1.4,1.4h6.9c0.8,0,1.4,0.6,1.4,1.4v6.9c0,0.8,0.6,1.4,1.4,1.4h35.4c0.8,0,1.4-0.6,1.4-1.4v-6.9
	c0-0.8,0.6-1.4,1.4-1.4h6.9c0.8,0,1.4-0.6,1.4-1.4v-8.4v-24c0-0.8-0.6-1.4-1.4-1.4h-16.7c-0.8,0-1.4,0.6-1.4,1.4v22.6
	C107.3,37.4,106.7,38.1,105.9,38.1z"/>
<path class="st0" d="M242.7,1.4v9.8c0,0.8-0.6,1.4-1.4,1.4h-22.8c-0.8,0-1.4,0.6-1.4,1.4V21c0,0.8-0.6,1.4-1.4,1.4h-6.9
	c-0.8,0-1.4,0.6-1.4,1.4v1.2v7.1v14.2c0,0.8,0.6,1.4,1.4,1.4h6.9c0.8,0,1.4,0.6,1.4,1.4v6.9c0,0.8,0.6,1.4,1.4,1.4h8.4h33.9
	c0.8,0,1.4-0.6,1.4-1.4v-6.9c0-0.8-0.6-1.4-1.4-1.4h-32.5c-0.8,0-1.4-0.6-1.4-1.4V33.6c0-0.8,0.6-1.4,1.4-1.4h32.5
	c0.8,0,1.4-0.6,1.4-1.4V30V12.7V1.4c0-0.8-0.6-1.4-1.4-1.4h-16.7C243.4,0,242.7,0.6,242.7,1.4z"/>
<path class="st0" d="M184.8,12.7h-45.2c-0.8,0-1.4,0.6-1.4,1.4v8.4v9.8v24c0,0.8,0.6,1.4,1.4,1.4h16.7c0.8,0,1.4-0.6,1.4-1.4V33.6
	c0-0.8,0.6-1.4,1.4-1.4h25.7c0.8,0,1.4,0.6,1.4,1.4v22.6c0,0.8,0.6,1.4,1.4,1.4h6.9c0.8,0,1.4-0.6,1.4-1.4V23.9
	c0-0.8-0.6-1.4-1.4-1.4h-6.9c-0.8,0-1.4-0.6-1.4-1.4v-6.9C186.3,13.3,185.6,12.7,184.8,12.7z"/>
<path class="st0" d="M57.7,18.1v-6.9c0-0.8-0.6-1.4-1.4-1.4h-6.9c-0.8,0-1.4-0.6-1.4-1.4V1.4C48,0.6,47.3,0,46.6,0h-27h-8.4
	c-0.8,0-1.4,0.6-1.4,1.4v6.9c0,0.8-0.6,1.4-1.4,1.4H1.4C0.6,9.8,0,10.4,0,11.2v8.4v26.9c0,0.8,0.6,1.4,1.4,1.4h6.9
	c0.8,0,1.4,0.6,1.4,1.4v6.9c0,0.8,0.6,1.4,1.4,1.4h27h9.2h8.9c0.8,0,1.4-0.6,1.4-1.4V39.5c0-0.8-0.6-1.4-1.4-1.4H39.6
	c-0.8,0-1.4,0.6-1.4,1.4v6.9c0,0.8-0.6,1.4-1.4,1.4H21c-0.8,0-1.4-0.6-1.4-1.4V21c0-0.8,0.6-1.4,1.4-1.4h35.4
	C57.1,19.5,57.7,18.9,57.7,18.1z"/>
</svg>
