<?xml version="1.0" encoding="UTF-8"?><svg id="_レイヤー_2" xmlns="http://www.w3.org/2000/svg" viewBox="0 0 61.9 61.9"><defs><style>.cls-1,.cls-2{stroke-width:0px;}.cls-2{fill:#fff;}</style></defs><g id="_レイヤー_1-2"><path class="cls-1" d="m61.9,22.4v-6.9c0-.8-.6-1.4-1.4-1.4h-6.9c-.8,0-1.4-.6-1.4-1.4v-6.9c0-.8-.6-1.4-1.4-1.4H15.4c-.8,0-1.4.6-1.4,1.4v6.9c0,.8-.6,1.4-1.4,1.4h-6.9c-.8,0-1.4.6-1.4,1.4v35.3c0,.8.6,1.4,1.4,1.4h6.9c.8,0,1.4.6,1.4,1.4v6.9c0,.8.6,1.4,1.4,1.4h45.1c.8,0,1.4-.6,1.4-1.4v-16.8c0-.8-.6-1.4-1.4-1.4h-16.7c-.8,0-1.4.6-1.4,1.4v6.9c0,.8-.6,1.4-1.4,1.4h-15.8c-.8,0-1.4-.6-1.4-1.4v-25.4c0-.8.6-1.4,1.4-1.4h35.4c.7,0,1.3-.6,1.3-1.4Z"/><path class="cls-2" d="m57.6,18.1v-7c0-.8-.6-1.4-1.4-1.4h-6.9c-.8,0-1.4-.6-1.4-1.4V1.4c0-.8-.6-1.4-1.4-1.4H11.1c-.8,0-1.4.6-1.4,1.4v6.9c0,.8-.6,1.4-1.4,1.4H1.4c-.8,0-1.4.6-1.4,1.4v35.3c0,.8.6,1.4,1.4,1.4h6.9c.8,0,1.4.6,1.4,1.4v6.9c0,.8.6,1.4,1.4,1.4h45.1c.8,0,1.4-.6,1.4-1.4v-16.7c0-.8-.6-1.4-1.4-1.4h-16.7c-.8,0-1.4.6-1.4,1.4v6.9c0,.8-.6,1.4-1.4,1.4h-15.9c-.8,0-1.4-.6-1.4-1.4v-25.4c0-.8.6-1.4,1.4-1.4h35.4c.8,0,1.4-.7,1.4-1.4Z"/></g></svg>