<?xml version="1.0" encoding="utf-8"?>
<!-- Generator: Adobe Illustrator 27.9.0, SVG Export Plug-In . SVG Version: 6.00 Build 0)  -->
<svg version="1.1" id="レイヤー_1" xmlns="http://www.w3.org/2000/svg" xmlns:xlink="http://www.w3.org/1999/xlink" x="0px"
	 y="0px" viewBox="0 0 293.1 61.9" style="enable-background:new 0 0 293.1 61.9;" xml:space="preserve">
<style type="text/css">
	.st0{fill:#FFFFFF;}
</style>
<g>
	<path d="M273.4,28.3l0,4.1c0,0.8,0.6,1.4,1.4,1.4h16.8c0.8,0,1.4-0.6,1.4-1.4l0-4.1c0-0.8-0.6-1.4-1.4-1.4l-16.8,0
		C274,26.9,273.4,27.5,273.4,28.3z"/>
	<path d="M265.1,61.9h16.7c0.8,0,1.4-0.6,1.4-1.4V43.8c0-0.8-0.6-1.4-1.4-1.4h-16.7c-0.8,0-1.4,0.6-1.4,1.4v16.7
		C263.7,61.3,264.3,61.9,265.1,61.9z"/>
	<path d="M102.3,42.4H76.7c-0.8,0-1.4-0.6-1.4-1.4V18.4c0-0.8-0.6-1.4-1.4-1.4h-6.9c-0.8,0-1.4,0.6-1.4,1.4v24v8.4
		c0,0.8,0.6,1.4,1.4,1.4h6.9c0.8,0,1.4,0.6,1.4,1.4v6.9c0,0.8,0.6,1.4,1.4,1.4h35.4c0.8,0,1.4-0.6,1.4-1.4v-6.9
		c0-0.8,0.6-1.4,1.4-1.4h6.9c0.8,0,1.4-0.6,1.4-1.4v-8.4v-24c0-0.8-0.6-1.4-1.4-1.4h-16.7c-0.8,0-1.4,0.6-1.4,1.4V41
		C103.8,41.8,103.1,42.4,102.3,42.4z"/>
	<path d="M232.7,5.7v9.8c0,0.8-0.6,1.4-1.4,1.4H215c-0.8,0-1.4,0.6-1.4,1.4v6.9c0,0.8-0.6,1.4-1.4,1.4h-6.9c-0.8,0-1.4,0.6-1.4,1.4
		v1.2v7.1v14.2c0,0.8,0.6,1.4,1.4,1.4h6.9c0.8,0,1.4,0.6,1.4,1.4v6.9c0,0.8,0.6,1.4,1.4,1.4h8.4h27.5c0.8,0,1.4-0.6,1.4-1.4v-6.9
		c0-0.8-0.6-1.4-1.4-1.4h-26c-0.8,0-1.4-0.6-1.4-1.4V37.9c0-0.8,0.6-1.4,1.4-1.4h26c0.8,0,1.4-0.6,1.4-1.4v-0.8V17V5.7
		c0-0.8-0.6-1.4-1.4-1.4h-16.7C233.3,4.3,232.7,5,232.7,5.7z"/>
	<path d="M181.3,17h-45.2c-0.8,0-1.4,0.6-1.4,1.4v8.4v9.8v24c0,0.8,0.6,1.4,1.4,1.4h16.7c0.8,0,1.4-0.6,1.4-1.4V37.9
		c0-0.8,0.6-1.4,1.4-1.4h25.7c0.8,0,1.4,0.6,1.4,1.4v22.6c0,0.8,0.6,1.4,1.4,1.4h6.9c0.8,0,1.4-0.6,1.4-1.4V28.2
		c0-0.8-0.6-1.4-1.4-1.4h-6.9c-0.8,0-1.4-0.6-1.4-1.4v-6.9C182.7,17.6,182,17,181.3,17z"/>
	<path d="M54.2,22.4v-6.9c0-0.8-0.6-1.4-1.4-1.4h-6.9c-0.8,0-1.4-0.6-1.4-1.4V5.7c0-0.8-0.6-1.4-1.4-1.4H23.9h-8.4
		c-0.8,0-1.4,0.6-1.4,1.4v6.9c0,0.8-0.6,1.4-1.4,1.4H5.7c-0.8,0-1.4,0.6-1.4,1.4v8.4v26.9c0,0.8,0.6,1.4,1.4,1.4h6.9
		c0.8,0,1.4,0.6,1.4,1.4v6.9c0,0.8,0.6,1.4,1.4,1.4h19.1h9.2h8.9c0.8,0,1.4-0.6,1.4-1.4V43.8c0-0.8-0.6-1.4-1.4-1.4H36
		c-0.8,0-1.4,0.6-1.4,1.4v6.9c0,0.8-0.6,1.4-1.4,1.4h-7.9c-0.8,0-1.4-0.6-1.4-1.4V25.3c0-0.8,0.6-1.4,1.4-1.4h27.5
		C53.5,23.9,54.2,23.2,54.2,22.4z"/>
	<path class="st0" d="M269.1,24l0,4.1c0,0.8,0.6,1.4,1.4,1.4h16.8c0.8,0,1.4-0.6,1.4-1.4l0-4.1c0-0.8-0.6-1.4-1.4-1.4l-16.8,0
		C269.7,22.6,269.1,23.2,269.1,24z"/>
	<path class="st0" d="M260.8,57.6h16.7c0.8,0,1.4-0.6,1.4-1.4V39.5c0-0.8-0.6-1.4-1.4-1.4h-16.7c-0.8,0-1.4,0.6-1.4,1.4v16.7
		C259.3,57,260,57.6,260.8,57.6z"/>
	<path class="st0" d="M98,38.1H72.4c-0.8,0-1.4-0.6-1.4-1.4V14.1c0-0.8-0.6-1.4-1.4-1.4h-6.9c-0.8,0-1.4,0.6-1.4,1.4v24v8.4
		c0,0.8,0.6,1.4,1.4,1.4h6.9c0.8,0,1.4,0.6,1.4,1.4v6.9c0,0.8,0.6,1.4,1.4,1.4h35.4c0.8,0,1.4-0.6,1.4-1.4v-6.9
		c0-0.8,0.6-1.4,1.4-1.4h6.9c0.8,0,1.4-0.6,1.4-1.4v-8.4v-24c0-0.8-0.6-1.4-1.4-1.4h-16.7c-0.8,0-1.4,0.6-1.4,1.4v22.6
		C99.4,37.4,98.8,38.1,98,38.1z"/>
	<path class="st0" d="M228.3,1.4v9.8c0,0.8-0.6,1.4-1.4,1.4h-16.3c-0.8,0-1.4,0.6-1.4,1.4V21c0,0.8-0.6,1.4-1.4,1.4h-6.9
		c-0.8,0-1.4,0.6-1.4,1.4v1.2v7.1v14.2c0,0.8,0.6,1.4,1.4,1.4h6.9c0.8,0,1.4,0.6,1.4,1.4v6.9c0,0.8,0.6,1.4,1.4,1.4h8.4h27.5
		c0.8,0,1.4-0.6,1.4-1.4v-6.9c0-0.8-0.6-1.4-1.4-1.4h-26c-0.8,0-1.4-0.6-1.4-1.4V33.6c0-0.8,0.6-1.4,1.4-1.4h26
		c0.8,0,1.4-0.6,1.4-1.4V30V12.7V1.4c0-0.8-0.6-1.4-1.4-1.4h-16.7C229,0,228.3,0.6,228.3,1.4z"/>
	<path class="st0" d="M176.9,12.7h-45.2c-0.8,0-1.4,0.6-1.4,1.4v8.4v9.8v24c0,0.8,0.6,1.4,1.4,1.4h16.7c0.8,0,1.4-0.6,1.4-1.4V33.6
		c0-0.8,0.6-1.4,1.4-1.4h25.7c0.8,0,1.4,0.6,1.4,1.4v22.6c0,0.8,0.6,1.4,1.4,1.4h6.9c0.8,0,1.4-0.6,1.4-1.4V23.9
		c0-0.8-0.6-1.4-1.4-1.4h-6.9c-0.8,0-1.4-0.6-1.4-1.4v-6.9C178.4,13.3,177.7,12.7,176.9,12.7z"/>
	<path class="st0" d="M49.8,18.1v-6.9c0-0.8-0.6-1.4-1.4-1.4h-6.9c-0.8,0-1.4-0.6-1.4-1.4V1.4c0-0.8-0.6-1.4-1.4-1.4H19.5h-8.4
		c-0.8,0-1.4,0.6-1.4,1.4v6.9c0,0.8-0.6,1.4-1.4,1.4H1.4C0.6,9.8,0,10.4,0,11.2v8.4v26.9c0,0.8,0.6,1.4,1.4,1.4h6.9
		c0.8,0,1.4,0.6,1.4,1.4v6.9c0,0.8,0.6,1.4,1.4,1.4h19.1h9.2h8.9c0.8,0,1.4-0.6,1.4-1.4V39.5c0-0.8-0.6-1.4-1.4-1.4H31.7
		c-0.8,0-1.4,0.6-1.4,1.4v6.9c0,0.8-0.6,1.4-1.4,1.4H21c-0.8,0-1.4-0.6-1.4-1.4V21c0-0.8,0.6-1.4,1.4-1.4h27.5
		C49.2,19.5,49.8,18.9,49.8,18.1z"/>
</g>
</svg>
